<mxfile host="app.diagrams.net" modified="2024-07-18T15:44:14.041Z" agent="Mozilla/5.0 (Windows NT 10.0; Win64; x64) AppleWebKit/537.36 (KHTML, like Gecko) Chrome/126.0.0.0 Safari/537.36" version="24.6.5" etag="aZ8ejLACitp6Z_l_KhON" type="github">
  <diagram name="Страница — 1" id="VZ4zWnhN33jynZy2BDhQ">
    <mxGraphModel>
      <root>
        <mxCell id="0" />
        <mxCell id="1" parent="0" />
      </root>
    </mxGraphModel>
  </diagram>
</mxfile>
